<?xml version="1.0" encoding="utf-8"?>
<!-- Svg Vector Icons : http://www.onlinewebfonts.com/icon -->
<!DOCTYPE svg PUBLIC "-//W3C//DTD SVG 1.1//EN" "http://www.w3.org/Graphics/SVG/1.1/DTD/svg11.dtd">
<svg version="1.1" xmlns="http://www.w3.org/2000/svg" xmlns:xlink="http://www.w3.org/1999/xlink" x="0px" y="0px" viewBox="0 0 1000 1000" enable-background="new 0 0 1000 1000" xml:space="preserve">
<metadata> Svg Vector Icons : http://www.onlinewebfonts.com/icon </metadata>
<g><g transform="translate(0.000000,511.000000) scale(0.100000,-0.100000)"><path style="fill:#fff;" d="M3550.2,3223.1l-56.2-53.9V1775.6V382l58.4-45c58.4-47.2,78.7-47.2,1452-47.2h1391.3l53.9,56.2L6506,400v1359.9c0,948.5-6.7,1375.6-24.7,1413.8c-13.5,31.5-49.5,67.4-80.9,80.9c-38.2,18-467.5,24.7-1425,24.7H3604.2L3550.2,3223.1z M6146.3,1784.5V649.4H5000H3853.7v1135.1v1135.1H5000h1146.3V1784.5z"/><path style="fill:#fff;" d="M4622.4,1912.7c-303.4-292.2-343.9-339.4-341.7-402.3c0-51.7,20.2-87.7,71.9-130.4c114.6-96.6,143.8-80.9,492.2,254l146.1,141.6l227-213.5c123.6-114.6,247.2-218,274.2-227c107.9-33.7,247.2,103.4,220.3,218c-15.7,60.7-676.6,692.3-721.5,692.3C4977.5,2245.3,4811.2,2094.7,4622.4,1912.7z"/><path style="fill:#fff;" d="M214.6-94.5C97.7-141.7,102.3-96.8,100-1571.3v-1377.8l56.2-54l53.9-56.2h1402.6h1402.6l47.2,51.7l49.5,51.7v1382.3v1384.6l-58.4,53.9l-58.4,54l-1362.1,4.5C787.8-74.3,248.3-81.1,214.6-94.5z M2752.3-1564.5v-1135.1H1606H459.6v1135.1v1135.1H1606h1146.3V-1564.5z"/><path style="fill:#fff;" d="M1484.6-1227.4c-179.8-188.8-328.2-352.9-328.2-361.9c0-13.5,105.6-128.1,597.9-654.1c87.7-92.1,186.6-101.2,267.5-18c103.4,101.1,80.9,164.1-157.3,424.8c-116.9,128.1-213.5,242.7-213.5,254s36,56.2,80.9,98.9c170.8,161.8,346.1,382.1,346.1,433.8c0,92.1-80.9,170.8-179.8,170.8C1817.2-879,1797-894.7,1484.6-1227.4z"/><path style="fill:#fff;" d="M3615.4-92.3C3489.5-141.7,3494-99,3494-1582.5v-1366.6l56.2-54l53.9-56.2h1402.6h1402.6l47.2,51.7l49.5,51.7v1384.6c0,1328.4-2.2,1386.8-42.7,1436.3l-42.7,54l-1380.1,4.5C4283-74.3,3640.1-81.1,3615.4-92.3z M6146.3-1564.5v-1135.1H5000H3853.7v1135.1v1135.1H5000h1146.3V-1564.5z"/><path style="fill:#fff;" d="M4336.9-1182.4c-116.9-114.6-78.7-182.1,337.2-595.6L5000-2104l359.6,361.9c328.2,328.2,359.6,366.4,359.6,438.3c0,103.4-76.4,177.6-179.8,177.6c-62.9,0-105.6-31.5-305.7-229.3L5000-1584.8l-233.8,229.3c-195.6,193.3-242.8,229.3-303.4,229.3C4415.6-1126.2,4370.6-1146.5,4336.9-1182.4z"/><path style="fill:#fff;" d="M6973.5-94.5c-35.9-13.5-69.7-49.5-83.2-92.2c-33.7-94.4-33.7-2665.8-2.2-2751.2c47.2-123.6-9-119.1,1501.5-121.4h1400.3l54,56.2l56.2,54V-1578v1371.1l-54,62.9l-53.9,62.9L8412-76.6C7548.9-74.3,7011.7-81.1,6973.5-94.5z M9535.9-1569l4.5-1130.6H8382.8H7225.2v1119.4c0,615.9,6.7,1128.3,15.7,1135.1c6.7,9,525.9,13.5,1150.8,11.2l1137.3-6.7L9535.9-1569z"/><path style="fill:#fff;" d="M7971.5-930.7c-92.2-98.9-67.4-175.3,114.6-370.9c87.7-94.4,186.6-200.1,215.8-233.8l53.9-60.7l-209-220.3c-114.6-121.4-215.8-242.7-227-272c-42.7-112.4,89.9-251.7,209-222.5c36,9,186.6,152.8,388.8,366.4l328.2,350.7l-83.2,92.1c-47.2,51.7-195.6,213.5-332.7,359.6c-227,242.7-251.7,263-328.2,263C8045.6-879,8005.2-894.7,7971.5-930.7z"/></g></g>
</svg>